PathFileType	4	(X/Y/Z)	 s11c0102.trc
DataRate	CameraRate	NumFrames	NumMarkers	Units	OrigDataRate	OrigDataStartFrame	OrigNumFrames
200	200	4	48	mm	200	501	2000
Frame#	Time	racr			lacr			c7			jug			rlel			rdr			llel			ldr			s2			lic			ric			lasi			rasi			rpsi			lpsi			rgt			lgt			rth1			rth2			rth3			rth4			rlfc			rmfc			rsh1			rsh2			rsh3			rsh4			rlmal			rcal			rtoe			rmt5			lth1			lth2			lth4			lth3			llfc			lmfc			llmal			lcal			lmt5			lsh1			lsh2			lsh3			lsh4			ltoe			SBIKE			LBIKE			RBIKE			
		X1	Y1	Z1	X2	Y2	Z2	X3	Y3	Z3	X4	Y4	Z4	X5	Y5	Z5	X6	Y6	Z6	X7	Y7	Z7	X8	Y8	Z8	X9	Y9	Z9	X10	Y10	Z10	X11	Y11	Z11	X12	Y12	Z12	X13	Y13	Z13	X14	Y14	Z14	X15	Y15	Z15	X16	Y16	Z16	X17	Y17	Z17	X18	Y18	Z18	X19	Y19	Z19	X20	Y20	Z20	X21	Y21	Z21	X22	Y22	Z22	X23	Y23	Z23	X24	Y24	Z24	X25	Y25	Z25	X26	Y26	Z26	X27	Y27	Z27	X28	Y28	Z28	X29	Y29	Z29	X30	Y30	Z30	X31	Y31	Z31	X32	Y32	Z32	X33	Y33	Z33	X34	Y34	Z34	X35	Y35	Z35	X36	Y36	Z36	X37	Y37	Z37	X38	Y38	Z38	X39	Y39	Z39	X40	Y40	Z40	X41	Y41	Z41	X42	Y42	Z42	X43	Y43	Z43	X44	Y44	Z44	X45	Y45	Z45	X46	Y46	Z46	X47	Y47	Z47	X48	Y48	Z48	
501	2.5050	548.371731	1366.880037	-87.616330	530.202219	1370.979563	-412.126676	485.337586	1452.852667	-247.240066	481.178497	1268.183614	-265.561037	593.117391	1128.336925	60.650580	781.265074	930.803626	-35.502191	510.557812	1084.656785	-548.484580	781.327404	930.588041	-444.328010	-90.604861	1219.967961	-229.181151	117.255528	1260.990633	-441.620224	134.832433	1205.941584	-38.866630	144.889054	1190.824668	-396.319739	160.498308	1148.449046	-73.367888	-41.337183	1287.479182	-168.564088	-51.514975	1290.633418	-263.904810	52.725990	1048.756374	-29.818949	53.489128	1152.978271	-463.653508	118.913742	924.804460	-23.080557	179.622426	857.687881	-33.538347	197.479059	774.192825	-55.423950	211.599305	875.994854	-41.166556	250.412485	686.093132	-81.212042	241.161740	671.027115	-206.679203	209.857317	537.369388	-62.968349	210.081501	450.876345	-80.991141	168.768679	373.935914	-81.838526	234.271493	448.197804	-112.665425	130.259549	237.195643	-93.969856	66.432241	220.865629	-142.024373	350.146914	177.875700	-134.637383	278.962417	151.551493	-66.353491	193.719367	1105.529443	-470.982209	279.288403	1101.293656	-464.617888	290.677986	1132.601992	-447.139008	355.098270	1053.416168	-470.932905	475.500952	995.332797	-452.802576	494.364534	981.911139	-315.628491	220.288335	654.418003	-412.339930	156.157039	646.865431	-376.416476	296.636840	492.473463	-437.406153	408.617482	900.055512	-461.889250	380.263617	820.248802	-445.360268	314.284372	761.715852	-437.135441	408.551715	804.818470	-424.141021	386.923165	457.345607	-370.424958	-204.296942	956.418083	-262.042634	1.439086	82.721272	-461.055829	-15.079894	81.270844	-62.553421	
502	2.5100	549.571459	1365.197425	-90.017785	529.483959	1370.353638	-413.338915	486.233518	1451.241656	-249.012548	481.333143	1266.645909	-267.934893	594.571835	1127.985715	60.018407	781.765375	930.243757	-35.411463	509.197631	1083.323401	-548.674457	781.376729	930.737188	-444.683657	-90.644058	1221.406683	-227.544397	116.379219	1261.918938	-440.421353	137.052920	1205.173604	-38.756403	143.870236	1191.916555	-394.821505	161.785300	1148.370929	-73.467910	-40.493671	1288.694106	-166.468083	-51.580556	1292.304235	-262.133540	52.797220	1049.803517	-28.416816	53.122322	1154.878986	-462.606496	121.186915	927.126948	-21.469497	178.752446	858.071670	-31.493275	196.853092	774.883634	-54.074633	210.883100	876.355862	-38.538346	250.097879	686.734605	-79.494226	243.578998	671.880092	-204.872679	207.862052	538.761742	-62.103815	206.389975	452.391340	-80.372620	163.608114	376.223950	-81.528259	230.958752	449.582645	-111.509829	122.333283	240.379625	-94.112661	58.145585	225.621088	-142.508536	340.955429	175.716552	-134.723902	269.105948	151.298360	-66.682457	193.329628	1107.429627	-470.018880	278.703841	1103.171550	-463.839932	290.270532	1134.657525	-446.382442	354.617137	1055.253363	-469.841695	474.513106	998.877689	-452.397418	493.991530	985.573312	-315.259285	225.948307	652.288822	-412.196717	161.320939	643.047446	-376.484098	306.579725	493.034323	-437.150910	409.959569	901.545879	-461.795875	383.277306	821.130875	-445.269155	318.558321	761.231564	-437.150651	411.739133	806.527719	-423.772170	397.888240	460.939938	-370.024087	-204.313606	956.442680	-261.932046	1.449090	82.727550	-461.039923	-15.087908	81.268561	-62.552872	
503	2.5150	550.634655	1363.242325	-92.367943	528.971380	1369.477911	-414.251326	487.170471	1449.402445	-250.676984	481.491785	1264.879610	-270.139243	595.781509	1127.640977	60.046352	782.200924	929.928956	-35.232550	508.027019	1081.907126	-549.023130	781.386284	930.910230	-444.982328	-90.704595	1222.992791	-225.976573	115.553600	1262.887627	-439.628602	138.892261	1204.835568	-38.635723	142.889397	1193.130128	-393.858418	162.995833	1148.261411	-73.531115	-39.764151	1290.100395	-164.456853	-51.668070	1294.203315	-260.482839	52.969327	1050.990406	-27.273590	51.408756	1155.614385	-459.911670	117.741702	925.544006	-20.364783	178.568278	858.801414	-29.748429	197.042111	776.126493	-53.071414	210.866169	877.241763	-35.366815	250.735014	687.745006	-77.679881	247.469677	673.245066	-203.376002	206.752722	540.579492	-61.218251	203.395988	454.288612	-79.788619	158.960048	379.169330	-81.229362	226.916058	450.786592	-111.570133	114.463575	244.537030	-94.019807	50.324574	231.464407	-142.636222	331.819790	174.202660	-134.996922	259.342628	151.675251	-66.997667	192.547801	1108.892617	-469.020825	277.949920	1104.597743	-462.973532	289.578624	1136.101769	-445.757879	353.768268	1056.477659	-468.821663	473.635897	1001.554794	-451.566513	493.122864	988.360585	-314.687994	231.364222	649.203909	-412.298444	166.384419	638.196306	-376.687450	316.372554	492.832250	-436.951808	411.047007	902.198729	-461.370564	385.989793	821.177781	-445.004221	322.487358	759.974151	-437.122374	414.560262	807.330287	-423.264084	408.610579	463.905547	-369.534742	-204.305273	956.460868	-261.803551	1.442594	82.754475	-461.020225	-15.087064	81.293634	-62.525127	
504	2.5200	551.566623	1361.007406	-94.624640	528.648915	1368.151071	-414.923262	488.058088	1447.341676	-252.224702	481.603944	1262.872176	-272.000906	596.707048	1127.383378	60.393890	782.432422	929.763478	-35.095508	507.033928	1080.454344	-549.598098	781.277156	931.030669	-445.233402	-90.983464	1224.727172	-224.432877	114.621753	1263.942586	-439.077482	141.316942	1205.124808	-37.707884	141.810641	1194.376871	-393.205142	163.771550	1148.246922	-73.611430	-39.071190	1291.533030	-162.770777	-51.756112	1296.047473	-258.882870	53.113581	1052.059532	-26.251570	50.390255	1156.733289	-458.575100	117.201618	926.519375	-19.276776	179.079823	859.923970	-28.292641	198.402108	777.642039	-52.246908	211.481084	878.515330	-32.805801	250.959896	689.109561	-76.199448	252.483345	675.380129	-201.793065	206.353990	542.941910	-60.350177	201.026883	456.839743	-79.212854	154.823249	382.759568	-80.924719	224.525525	452.961112	-110.980617	107.378371	249.431532	-94.242062	43.322408	238.238703	-143.030942	322.766630	173.022678	-135.368925	249.877353	153.031468	-67.113996	191.449135	1109.943327	-468.061012	276.812401	1105.468708	-462.146991	288.576774	1137.074118	-445.148171	352.366024	1057.314116	-467.852885	472.229521	1003.511213	-450.704430	491.859570	990.359478	-313.892816	236.437737	645.338470	-412.521303	171.086648	632.386282	-376.900367	325.954835	492.002155	-436.898662	411.833374	901.805431	-460.902466	388.302219	820.254645	-444.715368	325.989395	757.832448	-437.125190	416.982271	807.025836	-422.656998	419.083849	466.400867	-369.288785	-204.304558	956.533504	-261.710105	1.465732	82.817015	-461.061232	-15.080908	81.288186	-62.528536	
